<svg xmlns="http://www.w3.org/2000/svg" viewBox="0 0 623.53 80.36"><defs><style>.cls-1{fill:#5b376a;}.cls-2{fill:none;}</style></defs><title>indielogotypepurple</title><g id="Layer_2" data-name="Layer 2"><g id="Layer_1-2" data-name="Layer 1"><path class="cls-1" d="M289.71,31.32h0a7.68,7.68,0,0,0-3.74.8,3,3,0,0,0-.71.55l-28,26.78V32.16H244.46V67.33s0,.1,0,.15h0V70A9.42,9.42,0,0,0,248,77.59l.39.27a.41.41,0,0,0,.11.07c.16.1.32.2.49.29a6.46,6.46,0,0,0,2,.65,5.4,5.4,0,0,0,.89.06H256l28.47-27.2v27.2h12.77V38.82A7.5,7.5,0,0,0,289.71,31.32Z"/><polygon class="cls-1" points="465.92 78.94 465.92 44.64 481.51 44.64 490.42 32.42 440.04 32.42 431.13 44.64 451.8 44.64 451.8 78.94 465.92 78.94"/><path class="cls-1" d="M623.53,49.89c0-9.65-9.8-17.49-19.33-17.49H573.34l-9,12.12v.1H604.2a5.32,5.32,0,0,1,0,10.63H564.38V78.93H578.5V67.48h25.7c9.53,0,19.29-7.85,19.33-17.49Z"/><path class="cls-2" d="M186.3,67.12h26.25V44.62H192V59.21C192,62.59,187.22,67.12,186.3,67.12Z"/><path class="cls-1" d="M177.85,60.08c-.09,4.81-6.06,6.92-7.19,7H168.1l-8.82,11.8h70.37l8.53-11.41v-.4H226.67V32.48H177.85v27.6Zm34.7-15.46v22.5H186.3c.92,0,5.67-4.53,5.67-7.91V44.62Z"/><polygon class="cls-1" points="153.21 32.45 139.09 32.45 139.09 50.25 113.27 50.25 113.27 32.45 99.15 32.45 99.15 78.94 113.27 78.94 113.27 61.14 139.09 61.14 139.09 78.94 153.21 78.94 153.21 32.45"/><polygon class="cls-1" points="331.28 54.34 331.18 54.32 359.55 32.42 338.99 32.42 319.11 50.49 319.11 32.42 304.99 32.42 304.99 78.94 319.11 78.94 319.11 59.39 340.27 78.94 360.83 78.94 360.83 78.68 331.28 54.34"/><path class="cls-2" d="M534.71,43.88h-18c-6.14,0-9.65,4.72-9.65,10.85v.86c0,6.14,3.51,11.36,9.65,11.36h18c6.14,0,9.58-4.71,9.58-10.85v-.85C544.29,49.11,540.85,43.88,534.71,43.88Z"/><path class="cls-1" d="M534.71,31.88h-18a23.13,23.13,0,0,0-23,20.52v6a23.13,23.13,0,0,0,22.27,20.5H535.4a23.12,23.12,0,0,0,22.42-23.09V55A23.13,23.13,0,0,0,534.71,31.88Zm9.58,24.22c0,6.14-3.44,10.85-9.58,10.85h-18c-6.14,0-9.65-5.22-9.65-11.36v-.86c0-6.13,3.51-10.85,9.65-10.85h18c6.14,0,9.58,5.23,9.58,11.37Z"/><path class="cls-1" d="M438.13,78.93,410.28,37.42l-.56-.84L408.64,35l-.05-.07-.22-.32c-.1-.1-.22-.19-.34-.29l-.25-.27a9.78,9.78,0,0,0-6.65-2.48,9.42,9.42,0,0,0-7.58,3.52l-.27.39a.41.41,0,0,0-.07.11l-.31.46L364.11,78.93h16.24L401,48.11l.11-.16.48.72,12.15,18.12H394.57l-8.15,12.14h51.71Z"/><path class="cls-1" d="M48.86,15.71a3.86,3.86,0,1,1-5.42-.65A3.86,3.86,0,0,1,48.86,15.71Z"/><path class="cls-1" d="M78.59,0H0V47.54L18.91,33.21l6,7.68L0,60.8v5.75A13.83,13.83,0,0,0,13.82,80.36a10,10,0,0,0,6.73-2.6L69.21,33.49V78.93h21.2V11.82A11.82,11.82,0,0,0,78.59,0ZM62.28,5.16A58.27,58.27,0,0,1,43.21,31.54l-1.3,9.14-8.34,8.58a1.31,1.31,0,0,1-1.22.37h-.09a1.34,1.34,0,0,1-1.08-1.23L30.5,38.26l-3.11.7L24.29,35h0L21.2,31.09l1.41-2.86-9.68-3.05A1.33,1.33,0,0,1,12,23.84v-.09a1.32,1.32,0,0,1,.65-1.1L23,16.58l9.18.88A58.42,58.42,0,0,1,62.28,5.15h0Z"/></g></g></svg>