<svg width="212" height="150" xmlns="http://www.w3.org/2000/svg" viewBox="0 0 269.3 190.6"><style>.st1{fill:#2b2a29}</style><g id="Слой_x0020_1"><g id="_2224315200"><path d="M78.7 107.4c-3.5 0-6.3-1.2-8.6-3.5s-3.4-5.2-3.4-8.6c0-3.4 1.1-6.3 3.4-8.6s5.2-3.5 8.6-3.5 6.2 1.2 8.5 3.5 3.4 5.2 3.4 8.6c0 3.5-1.1 6.3-3.4 8.6s-5.1 3.5-8.5 3.5zM174 2.6c25.6 0 48.8 10.4 65.6 27.2 16.8 16.8 27.2 40 27.2 65.6s-10.4 48.8-27.2 65.6c-16.8 16.8-40 27.2-65.6 27.2-25.6 0-48.8-10.4-65.6-27.2-12.6-12.6-21.6-28.8-25.3-46.9 3.8-.7 7-2.4 9.8-5.1 3.8-3.8 5.6-8.3 5.6-13.6 0-5.3-1.8-9.8-5.6-13.5-2.7-2.7-6-4.4-9.8-5.1 3.7-18.1 12.7-34.3 25.3-46.9 16.8-17 40-27.3 65.6-27.3zM80.6 114.3c3.8 18.7 13 35.4 26 48.4 17.2 17.2 41.1 27.9 67.4 27.9 26.3 0 50.1-10.7 67.4-27.9 17.2-17.2 27.9-41.1 27.9-67.4 0-26.3-10.7-50.1-27.9-67.4C224.1 10.7 200.3 0 174 0c-26.3 0-50.1 10.7-67.4 27.9-13 13-22.2 29.7-26 48.4-.6 0-1.2-.1-1.9-.1-5.8 0-10.5 1.8-14.3 5.5-3.8 3.7-5.6 8.2-5.6 13.5 0 5.4 1.8 9.9 5.6 13.6 3.8 3.7 8.5 5.5 14.3 5.5.7.1 1.3 0 1.9 0z" fill="#aa232b"/><path class="st1" d="M144 146c2.5 0 4.4-.9 5.7-2.6v2.2h3.5v-24.2h-3.5v10.3c-1.3-1.7-3.2-2.6-5.7-2.6-2.3 0-4.1.8-5.6 2.5-1.5 1.6-2.2 3.6-2.2 6s.7 4.4 2.2 6c1.5 1.6 3.4 2.4 5.6 2.4zm1-3.1c-1.5 0-2.7-.5-3.7-1.5s-1.5-2.3-1.5-3.8.5-2.7 1.5-3.8c1-1 2.2-1.6 3.7-1.6 2.1 0 3.9 1.2 4.8 2.8v5c-1 1.7-2.8 2.9-4.8 2.9zm17.1 2.6v-16h-3.5v16h3.5zm-1.7-20.2c1.2 0 2.2-.9 2.2-2.2 0-1.3-1-2.3-2.2-2.3-1.3 0-2.2 1-2.2 2.3-.1 1.3.9 2.2 2.2 2.2zm19.4 6.3c-1.3-1.7-3.2-2.5-5.7-2.5-2.3 0-4.1.8-5.6 2.4-1.5 1.6-2.2 3.5-2.2 5.8s.7 4.2 2.2 5.9c1.5 1.6 3.3 2.4 5.6 2.4 2.5 0 4.4-.8 5.7-2.5v1.2c0 3.4-2.5 5.2-5.9 5.2-2.2 0-4.2-.5-5.9-1.6v3.2c1.7.9 3.8 1.4 6.3 1.4s4.6-.7 6.4-2.1c1.8-1.4 2.6-3.6 2.6-6.3v-14.6h-3.5v2.1zm-4.8 10.8c-1.5 0-2.7-.5-3.7-1.5s-1.5-2.2-1.5-3.6.5-2.6 1.5-3.6 2.2-1.5 3.7-1.5c2.1 0 4 1.1 4.8 2.8v4.7c-.8 1.5-2.7 2.7-4.8 2.7zm17.1 3.1v-16h-3.5v16h3.5zm-1.8-20.2c1.2 0 2.2-.9 2.2-2.2 0-1.3-1-2.3-2.2-2.3-1.3 0-2.2 1-2.2 2.3 0 1.3.9 2.2 2.2 2.2zm8.8 15.9c0 3.1 1.9 4.8 4.9 4.8 1.6 0 2.8-.3 3.6-.8v-3c-.8.4-1.5.6-2.4.6-1.7 0-2.5-.8-2.5-2.6v-7.6h5.1v-3.1h-5.1v-4.7h-3.5v4.7h-3.4v3.1h3.4l-.1 8.6zm27.6 1.6c-.8 0-1.3-.6-1.3-1.6v-6c0-3.9-3-6.1-7.4-6.1-2.3 0-4.2.5-5.9 1.4v3.1c1.5-.9 3.2-1.4 5.1-1.4 3.1 0 4.7 1.2 4.7 3.5v.9c-1.5-.8-3.2-1.2-5.1-1.2-1.8 0-3.3.5-4.6 1.4-1.2.9-1.9 2.2-1.9 3.9 0 1.7.6 3 1.7 4 1.1.9 2.6 1.4 4.3 1.4 2.5 0 4.4-.8 5.9-2.5.4 1.5 1.6 2.3 3.4 2.3.9 0 1.6-.2 2.1-.5v-2.7c-.3 0-.6.1-1 .1zm-4.8-1.8c-1 1.1-2.7 1.9-4.6 1.9-2.1 0-3.5-.8-3.5-2.5 0-1.6 1.4-2.5 3.8-2.5 1.5 0 2.9.4 4.3 1.1v2zm13.3 5c1 0 1.9-.2 2.6-.5v-3c-.4.2-.8.3-1.3.3-1.2 0-1.8-.7-1.8-2v-19.4h-3.5v20.4c0 3 1.7 4.2 4 4.2zM8.1 113.4V74.2l14.4 19.5h4.7l14.4-19.5v39.2h8.1V61.8h-8.1L25 85 8.3 61.8H0v51.6h8.1zm107.6 0V91.2c1.7-3.8 6.2-7.1 11.9-7.1.8 0 1.5.1 2.2.1v-8c-.2-.1-.4-.1-.7-.1-5.6 0-10.9 3-13.3 7.2V77h-8v36.2l7.9.2zm29.5 0V77.2h-8v36.2h8zm-4-42.7c2.7 0 4.9-2.1 4.9-5s-2.2-5.1-4.9-5.1c-2.9 0-5 2.2-5 5.1 0 2.9 2.2 5 5 5zm33.4 36.7c-3.5 0-6.3-1.2-8.6-3.5s-3.4-5.2-3.4-8.6c0-3.4 1.1-6.3 3.4-8.6s5.2-3.5 8.6-3.5 6.2 1.2 8.5 3.5 3.4 5.2 3.4 8.6c0 3.5-1.1 6.3-3.4 8.6s-5.1 3.5-8.5 3.5zm0 7c5.7 0 10.5-1.8 14.2-5.5 3.8-3.8 5.6-8.3 5.6-13.6 0-5.3-1.8-9.8-5.6-13.5-3.8-3.7-8.5-5.5-14.2-5.5-5.8 0-10.5 1.8-14.3 5.5-3.8 3.7-5.6 8.2-5.6 13.5 0 5.4 1.8 9.9 5.6 13.6 3.7 3.6 8.4 5.5 14.3 5.5zm36.5-24.8c2.1-3.3 6.2-5.9 10.2-5.9 4.7 0 8.5 2.3 8.5 9.4v20.3h8V91.3c0-9.4-4.9-15-13.4-15-5.3 0-9.7 1.9-13.3 5.8v-4.8h-8v36.2h8V89.6z"/></g></g></svg>